<?xml version="1.0" standalone="no"?>
<!DOCTYPE svg PUBLIC "-//W3C//DTD SVG 20010904//EN"
 "http://www.w3.org/TR/2001/REC-SVG-20010904/DTD/svg10.dtd">
<svg version="1.0" xmlns="http://www.w3.org/2000/svg"
 width="980.000000pt" height="982.000000pt" viewBox="0 0 980.000000 982.000000"
 preserveAspectRatio="xMidYMid meet">

<g transform="translate(0.000000,982.000000) scale(0.100000,-0.100000)"
fill="#000000" stroke="none">
<path fill='#000000' d="M3935 9804 c-202 -20 -351 -39 -465 -60 -1393 -256 -2572 -1200
-3131 -2506 -331 -775 -422 -1645 -258 -2473 194 -977 726 -1852 1509 -2479
657 -527 1433 -839 2280 -915 168 -16 571 -13 751 4 691 66 1395 313 2012 706
l110 71 1016 -1015 1016 -1015 85 -41 c120 -58 195 -75 305 -69 166 10 296 76
450 232 99 100 143 174 170 287 39 167 -9 366 -129 532 -25 34 -483 500 -1019
1036 l-974 973 62 92 c271 396 481 875 604 1376 300 1217 69 2464 -643 3475
-201 285 -552 659 -816 869 -627 498 -1353 803 -2150 901 -128 16 -680 29
-785 19z m702 -1058 c1168 -153 2125 -895 2557 -1981 210 -529 273 -1160 175
-1735 -221 -1289 -1205 -2305 -2481 -2564 -559 -114 -1134 -82 -1663 90 -371
122 -700 300 -1010 547 -133 107 -390 367 -491 497 -93 120 -200 279 -266 395
-411 722 -524 1605 -308 2420 210 796 718 1475 1421 1898 415 249 877 400
1369 447 141 13 554 5 697 -14z"/>
</g>
</svg>
